<svg xmlns="http://www.w3.org/2000/svg" viewBox="0 0 64 64" width="64" height="64"><rect width="64" height="64" rx="14" fill="#0d1117"/><rect x="9" y="9" width="8.85" height="8.85" rx="2.12" fill="#0e4429"/><rect x="21.38" y="9" width="8.85" height="8.85" rx="2.12" fill="#006d32"/><rect x="33.77" y="9" width="8.85" height="8.85" rx="2.12" fill="#26a641"/><rect x="46.15" y="9" width="8.85" height="8.85" rx="2.12" fill="#39d353"/><rect x="9" y="21.38" width="8.85" height="8.85" rx="2.12" fill="#006d32"/><rect x="21.38" y="21.38" width="8.85" height="8.85" rx="2.12" fill="#26a641"/><rect x="33.77" y="21.38" width="8.85" height="8.85" rx="2.12" fill="#39d353"/><rect x="46.15" y="21.38" width="8.85" height="8.85" rx="2.12" fill="#26a641"/><rect x="9" y="33.77" width="8.85" height="8.85" rx="2.12" fill="#26a641"/><rect x="21.38" y="33.77" width="8.85" height="8.85" rx="2.12" fill="#39d353"/><rect x="33.77" y="33.77" width="8.85" height="8.85" rx="2.12" fill="#26a641"/><rect x="46.15" y="33.77" width="8.85" height="8.85" rx="2.12" fill="#006d32"/><rect x="9" y="46.15" width="8.85" height="8.85" rx="2.12" fill="#39d353"/><rect x="21.38" y="46.15" width="8.85" height="8.85" rx="2.12" fill="#26a641"/><rect x="33.77" y="46.15" width="8.85" height="8.85" rx="2.12" fill="#006d32"/><rect x="46.15" y="46.15" width="8.85" height="8.85" rx="2.12" fill="#0e4429"/><line x1="32" y1="9" x2="32" y2="55" stroke="#e8a87c" stroke-width="1.42" stroke-linecap="round" stroke-dasharray="3.72 4.42"/></svg>